<?xml version="1.0" encoding="UTF-8" standalone="no"?>
<!DOCTYPE svg PUBLIC "-//W3C//DTD SVG 1.1//EN" "http://www.w3.org/Graphics/SVG/1.1/DTD/svg11.dtd">
<svg width="100%" height="100%" viewBox="0 0 1608 461" version="1.1" xmlns="http://www.w3.org/2000/svg" xmlns:xlink="http://www.w3.org/1999/xlink" xml:space="preserve" xmlns:serif="http://www.serif.com/" style="fill-rule:evenodd;clip-rule:evenodd;stroke-linejoin:round;stroke-miterlimit:2;">
    <g transform="matrix(1,0,0,1,0.000052,0.000687)">
        <g transform="matrix(1,0,0,1,-156.314,-308.334)">
            <g transform="matrix(1.488307,0,0,1.488307,155.569794,308.333313)">
                <path d="M0.5,0L0.5,53.734L40.825,53.734L40.825,309.721L94.512,309.721L94.512,53.734L134.838,53.734L134.838,0L0.5,0Z" style="fill:rgb(153,0,0);fill-rule:nonzero;"/>
            </g>
        </g>
        <g transform="matrix(1,0,0,1,-156.314,-308.334)">
            <g transform="matrix(1.488307,0,0,1.488307,155.569794,308.333313)">
                <path d="M230.16,0L230.16,242.528C230.16,249.93 224.104,255.986 216.75,255.986C209.348,255.986 203.341,249.93 203.341,242.528L203.341,0L149.605,0L149.605,242.528C149.605,279.488 179.837,309.672 216.75,309.672C253.71,309.672 283.894,279.441 283.894,242.528L283.894,0L230.16,0Z" style="fill:rgb(153,0,0);fill-rule:nonzero;"/>
            </g>
        </g>
        <g transform="matrix(1,0,0,1,-156.314,-308.334)">
            <g transform="matrix(1.488307,0,0,1.488307,155.569794,308.333313)">
                <path d="M370.239,0L370.239,309.672L423.974,309.672L423.974,179.181L437.384,179.181C444.785,179.181 450.794,185.236 450.794,192.59L450.794,309.672L504.528,309.672L504.528,197.684C504.528,189.754 503.135,182.16 500.588,175.048C496.887,164.761 487.562,158.224 476.604,158.224L467.616,158.224C465.789,158.224 464.251,156.734 464.251,154.86C464.251,153.034 465.741,151.496 467.616,151.496L476.604,151.496C487.562,151.496 496.838,144.959 500.588,134.674C503.135,127.608 504.528,119.966 504.528,112.084L504.528,67.144C504.528,30.231 474.345,0 437.384,0L370.239,0ZM423.974,53.734L437.384,53.734C444.785,53.734 450.794,59.742 450.794,67.144L450.794,117.082C450.794,124.483 444.785,130.541 437.384,130.541L423.974,130.541L423.974,53.734Z" style="fill:rgb(153,0,0);fill-rule:nonzero;"/>
            </g>
        </g>
        <g transform="matrix(1,0,0,1,-156.314,-308.334)">
            <g transform="matrix(1.488307,0,0,1.488307,155.569794,308.333313)">
                <path d="M524.916,0L524.916,309.721L659.205,309.721L659.205,255.986L578.651,255.986L578.651,179.181L640.942,179.181L640.942,130.541L578.651,130.541L578.651,53.734L659.205,53.734L659.205,0L524.916,0Z" style="fill:rgb(153,0,0);fill-rule:nonzero;"/>
            </g>
        </g>
        <g transform="matrix(1,0,0,1,-156.314,-308.334)">
            <g transform="matrix(1.488307,0,0,1.488307,155.569794,308.333313)">
                <rect x="674.022" y="0" width="53.736" height="309.72" style="fill:rgb(153,0,0);"/>
            </g>
        </g>
        <g transform="matrix(1,0,0,1,-156.314,-308.334)">
            <g transform="matrix(1.488307,0,0,1.488307,155.569794,308.333313)">
                <path d="M946.21,67.144L946.21,309.721L999.945,309.721L999.945,221.908L1026.813,221.908L1026.813,309.721L1080.5,309.721L1080.5,67.144C1080.5,30.231 1050.316,0 1013.355,0C976.442,0 946.21,30.231 946.21,67.144ZM999.945,67.144C999.945,59.742 1006.001,53.734 1013.403,53.734C1020.804,53.734 1026.813,59.742 1026.813,67.144L1026.813,173.221L999.945,173.221L999.945,67.144Z" style="fill:rgb(153,0,0);fill-rule:nonzero;"/>
            </g>
        </g>
        <g transform="matrix(1,0,0,1,-156.314,-308.334)">
            <g transform="matrix(1.488307,0,0,1.488307,155.569794,308.333313)">
                <path d="M871.651,0L871.651,252.621C871.651,254.448 870.161,255.986 868.286,255.986C866.46,255.986 864.922,254.448 864.922,252.621L847.763,0L750.194,0L750.194,309.672L803.929,309.672L803.929,57.099C803.929,55.273 805.42,53.734 807.294,53.734C809.073,53.734 810.611,55.224 810.611,57.099L827.769,309.721L925.386,309.721L925.386,0L871.651,0Z" style="fill:rgb(153,0,0);fill-rule:nonzero;"/>
            </g>
        </g>
    </g>
</svg>
