<?xml version="1.0" encoding="UTF-8" standalone="no"?>
<!DOCTYPE svg PUBLIC "-//W3C//DTD SVG 1.1//EN" "http://www.w3.org/Graphics/SVG/1.1/DTD/svg11.dtd">
<svg width="100%" height="100%" viewBox="0 0 1847 1048" version="1.1" xmlns="http://www.w3.org/2000/svg" xmlns:xlink="http://www.w3.org/1999/xlink" xml:space="preserve" xmlns:serif="http://www.serif.com/" style="fill-rule:evenodd;clip-rule:evenodd;stroke-linejoin:round;stroke-miterlimit:2;">
    <g transform="matrix(1,0,0,1,-5016.8188,-554.952316)">
        <g transform="matrix(2,0,0,2,4860,0)">
            <g transform="matrix(1,0,0,1,209.6174,599.7674)">
                <path d="M0,87.998L-131.208,-47.15L-131.208,129.409L-111.965,129.409L-111.965,0.788L19.13,135.148L19.13,-42.423L0,-42.423L0,87.998Z" style="fill:rgb(255,0,0);fill-rule:nonzero;"/>
            </g>
        </g>
        <g transform="matrix(2,0,0,2,4860,0)">
            <g transform="matrix(1,0,0,1,432.4345,606.7443)">
                <path d="M0,72.695C-6.49,83.798 -15.304,92.575 -26.444,99.026C-37.584,105.479 -49.757,108.704 -62.959,108.704C-76.088,108.704 -88.204,105.479 -99.306,99.026C-110.41,92.575 -119.186,83.798 -125.637,72.695C-132.091,61.593 -135.315,49.476 -135.315,36.347C-135.315,23.22 -132.091,11.084 -125.637,-0.055C-119.186,-11.196 -110.41,-19.991 -99.306,-26.443C-88.204,-32.895 -76.088,-36.121 -62.959,-36.121C-53.057,-36.121 -43.624,-34.208 -34.659,-30.383C-25.695,-26.556 -17.968,-21.416 -11.478,-14.966C-4.99,-8.513 0.169,-0.805 3.995,8.159C7.821,17.124 9.734,26.52 9.734,36.347C9.734,49.476 6.488,61.593 0,72.695M2.194,-27.626C-5.983,-35.689 -15.754,-42.085 -27.119,-46.812C-38.485,-51.538 -50.432,-53.901 -62.959,-53.901C-75.413,-53.901 -87.304,-51.538 -98.631,-46.812C-109.959,-42.085 -119.693,-35.689 -127.832,-27.626C-135.973,-19.56 -142.461,-9.958 -147.299,1.183C-152.138,12.322 -154.557,24.045 -154.557,36.347C-154.557,48.652 -152.138,60.373 -147.299,71.513C-142.461,82.654 -135.973,92.238 -127.832,100.264C-119.693,108.293 -109.959,114.687 -98.631,119.451C-87.304,124.214 -75.413,126.596 -62.959,126.596C-50.432,126.596 -38.485,124.233 -27.119,119.506C-15.754,114.78 -5.983,108.386 2.194,100.32C10.37,92.258 16.879,82.654 21.718,71.513C26.557,60.373 28.976,48.652 28.976,36.347C28.976,24.045 26.557,12.322 21.718,1.183C16.879,-9.958 10.37,-19.56 2.194,-27.626" style="fill:rgb(255,0,0);fill-rule:nonzero;"/>
            </g>
        </g>
        <g transform="matrix(2,0,0,2,4860,0)">
            <g transform="matrix(1,0,0,1,529.6693,638.141)">
                <path d="M0,10.24L68.08,10.24L68.08,-5.964L0,-5.964L0,-63.355L74.494,-63.355L74.494,-80.796L-19.129,-80.796L-19.129,91.036L75.732,91.036L75.732,73.593L0,73.593L0,10.24Z" style="fill:rgb(255,0,0);fill-rule:nonzero;"/>
            </g>
        </g>
        <g transform="matrix(2,0,0,2,4860,0)">
            <g transform="matrix(1,0,0,1,673.4352,729.1768)">
                <path d="M0,-171.832L-19.242,-171.832L-19.242,0L61.554,0L61.554,-17.217L0,-17.217L0,-171.832Z" style="fill:rgb(255,0,0);fill-rule:nonzero;"/>
            </g>
        </g>
        <g transform="matrix(2,0,0,2,4860,0)">
            <g transform="matrix(1,0,0,1,0,206.522)">
                <rect x="778.042" y="350.823" width="19.242" height="171.832" style="fill:rgb(255,0,0);"/>
            </g>
        </g>
        <g transform="matrix(2,0,0,2,4860,0)">
            <g transform="matrix(1,0,0,1,890.8632,613.0462)">
                <path d="M0,55.027L31.508,-17.892L62.903,55.027L0,55.027ZM32.409,-61.104L30.383,-61.104L-47.824,116.131L-26.331,116.131L-6.639,70.556L69.655,70.556L89.235,116.131L110.727,116.131L32.409,-61.104Z" style="fill:rgb(255,0,0);fill-rule:nonzero;"/>
            </g>
        </g>
        <g transform="matrix(2,0,0,2,4860,0)">
            <g transform="matrix(1,0,0,1,389.9125,793.4893)">
                <path d="M0,-23.522C2.084,-24.674 4.442,-25.25 7.073,-25.25C11.131,-25.25 14.549,-23.751 17.327,-20.754L21.933,-25.085C20.141,-27.169 17.948,-28.759 15.353,-29.855C12.757,-30.952 9.888,-31.5 6.744,-31.5C2.869,-31.5 -0.63,-30.651 -3.755,-28.95C-6.881,-27.251 -9.34,-24.902 -11.131,-21.904C-12.922,-18.906 -13.818,-15.526 -13.818,-11.76C-13.818,-7.995 -12.931,-4.614 -11.158,-1.616C-9.386,1.381 -6.936,3.729 -3.811,5.43C-0.685,7.129 2.815,7.978 6.69,7.978C9.833,7.978 12.712,7.431 15.326,6.333C17.939,5.238 20.141,3.647 21.933,1.563L17.327,-2.823C14.549,0.212 11.131,1.728 7.073,1.728C4.442,1.728 2.084,1.152 0,0C-2.083,-1.15 -3.711,-2.75 -4.88,-4.797C-6.05,-6.844 -6.635,-9.165 -6.635,-11.76C-6.635,-14.356 -6.05,-16.677 -4.88,-18.725C-3.711,-20.771 -2.083,-22.37 0,-23.522" style="fill:rgb(255,0,0);fill-rule:nonzero;"/>
            </g>
        </g>
        <g transform="matrix(2,0,0,2,4860,0)">
            <g transform="matrix(1,0,0,1,0,483.457)">
                <rect x="477.697" y="279.08" width="7.128" height="38.383" style="fill:rgb(255,0,0);"/>
            </g>
        </g>
        <g transform="matrix(2,0,0,2,4860,0)">
            <g transform="matrix(1,0,0,1,581.2177,774.9303)">
                <path d="M0,13.597L-21.164,-12.393L-27.031,-12.393L-27.031,25.99L-19.958,25.99L-19.958,-0.001L1.206,25.99L7.073,25.99L7.073,-12.393L0,-12.393L0,13.597Z" style="fill:rgb(255,0,0);fill-rule:nonzero;"/>
            </g>
        </g>
        <g transform="matrix(2,0,0,2,4860,0)">
            <g transform="matrix(1,0,0,1,664.7259,779.0958)">
                <path d="M0,5.265L18.533,5.265L18.533,-0.602L0,-0.602L0,-10.581L20.89,-10.581L20.89,-16.559L-7.128,-16.559L-7.128,21.824L21.659,21.824L21.659,15.848L0,15.848L0,5.265Z" style="fill:rgb(255,0,0);fill-rule:nonzero;"/>
            </g>
        </g>
        <g transform="matrix(2,0,0,2,4860,0)">
            <g transform="matrix(1,0,0,1,529.7037,354.8058)">
                <path d="M0,73.541C-0.002,73.54 -0.004,73.539 -0.006,73.539C-0.004,73.539 -0.002,73.54 0,73.541M-19.109,57.61C-17.864,59.486 -16.31,59.057 -16.112,59.41C-15.914,59.763 -15.055,60.015 -15.055,60.015C-15.055,60.015 -14.636,63.461 -14.129,63.912C-13.622,64.363 -11.178,65.036 -10.841,65.013C-10.504,64.989 -10.594,64.611 -10.594,64.611C-10.594,64.611 -5.161,66.128 -0.585,66.095C-0.221,70.684 0.044,70.796 0.066,70.797C-0.666,70.771 -0.963,71.334 -1.069,71.956C-1.177,72.588 -0.832,73.175 -0.294,73.436C-0.294,73.436 -0.101,73.883 -2.237,76.19C-4.373,78.497 -3.63,79.778 -3.63,79.778C-3.283,81.008 -1.851,81.784 -1.851,81.784C-2.846,83.62 -4.078,85.673 -5.122,87.5C-5.96,88.97 -6.059,90.076 -6.067,90.458C-6.134,90.865 -6.219,91.368 -6.291,91.783C-15.883,81.84 -19.336,68.774 -20.223,57.378C-19.604,57.528 -19.109,57.61 -19.109,57.61M27.052,48.51C27.522,49.26 28.055,50.685 28.055,50.685C28.055,50.685 27.526,50.691 27.389,50.866C27.251,51.041 27.911,53.256 28.248,54.085C28.584,54.915 29.678,54.782 29.678,54.782C29.678,54.782 29.915,55.109 29.999,55.811C30.082,56.513 28.488,58.092 28.05,58.739C27.616,59.38 27.618,60.086 27.821,61.152C25.078,60.331 22.952,59.905 22.952,59.905C22.854,58.161 21.064,57.832 21.064,57.832C21.064,57.832 20.188,55.094 19.516,53.026C19.047,51.582 18.915,51.038 18.661,49.503C21.208,48.373 23.478,46.924 24.247,46.778C25.99,46.447 26.583,47.76 27.052,48.51M2.22,73.518C1.543,73.565 0.908,73.582 0.32,73.579C0.908,73.582 1.543,73.565 2.22,73.518M-14.778,-37.498C-17.757,-37.597 -20.101,-40.093 -20.005,-43.075C-19.906,-46.059 -17.406,-48.398 -14.428,-48.301C-11.444,-48.204 -9.104,-45.707 -9.202,-42.724C-9.299,-39.739 -11.798,-37.402 -14.778,-37.498M-23.664,-59.068C-23.567,-62.051 -21.07,-64.391 -18.087,-64.295C-15.106,-64.195 -12.767,-61.698 -12.865,-58.716C-12.964,-55.732 -15.46,-53.393 -18.44,-53.489C-21.423,-53.586 -23.762,-56.084 -23.664,-59.068M-4.282,-73.37C-1.296,-73.273 1.041,-70.779 0.944,-67.791C0.845,-64.812 -1.649,-62.475 -4.635,-62.574C-7.617,-62.672 -9.956,-65.165 -9.858,-68.146C-9.759,-71.13 -7.264,-73.468 -4.282,-73.37M8.967,-63.409C11.951,-63.313 14.287,-60.814 14.189,-57.834C14.091,-54.848 11.597,-52.508 8.614,-52.606C5.632,-52.703 3.292,-55.201 3.39,-58.186C3.488,-61.169 5.984,-63.505 8.967,-63.409M21.933,-42.22C22.672,-38.574 23.41,-34.924 24.147,-31.278C19.366,-31.087 14.663,-31.455 10.115,-32.828C9.651,-33.574 9.186,-34.319 8.721,-35.064C11.103,-36.777 13.153,-38.928 14.747,-41.407C17.122,-41.543 19.519,-41.821 21.933,-42.22M-1.545,-42.474C-1.448,-45.456 1.05,-47.795 4.033,-47.699C7.015,-47.601 9.358,-45.104 9.26,-42.12C9.164,-39.137 6.661,-36.799 3.681,-36.897C0.695,-36.993 -1.643,-39.488 -1.545,-42.474M47.844,-48.22C47.216,-43.535 46.588,-38.856 45.96,-34.174C41.074,-33.298 36.188,-32.461 31.379,-32.097C30.83,-35.881 30.283,-39.659 29.733,-43.438C35.709,-44.625 41.772,-46.403 47.844,-48.22M54.423,-50.103C60.493,-51.919 66.558,-53.694 72.534,-54.885C70.562,-49.163 68.589,-43.442 66.617,-37.725C61.807,-37.365 56.921,-36.525 52.037,-35.651C52.833,-40.466 53.628,-45.284 54.423,-50.103M80.098,-55.674C86.041,-56.659 91.886,-56.963 97.547,-56.037C94.244,-49.547 90.945,-43.059 87.644,-36.571C83.097,-37.946 78.395,-38.313 73.611,-38.124C75.773,-43.974 77.934,-49.823 80.098,-55.674M120.789,-45.627C116.256,-38.967 111.717,-32.305 107.179,-25.646C103.074,-29.97 98.736,-32.768 94.236,-34.481C97.715,-41.036 101.193,-47.593 104.672,-54.148C110.27,-52.808 115.671,-50.152 120.789,-45.627M-166.25,145.877C25.896,104.831 191.641,151.278 191.641,151.278C137.321,131.892 84.909,123.117 37.721,120.475C39.092,119.242 41.536,117.049 43.054,116.842C43.054,116.842 45.69,115.246 45.906,113.89C46.122,112.535 46.434,112.028 45.041,109.762C45.041,109.762 44.441,108.574 43.454,108.404C43.454,108.404 41.755,107.095 41.89,105.006L41.61,103.515C41.61,103.515 41.559,102.183 40.13,101.849C40.13,101.849 37.807,96.589 34.451,94.03C34.451,94.03 33.913,93.457 33.2,92.951C33.146,92.84 33.091,92.755 33.037,92.703C32.201,91.898 30.524,89.997 30.524,89.997C29.658,88.228 29.27,86.175 28.634,83.517C28.557,83.194 28.439,82.719 28.297,82.155C30.125,81.113 31.023,80.229 31.023,80.229C31.205,80.01 31.356,79.778 31.356,79.778L34.248,76.564C37.077,73.425 37.149,73.269 37.149,73.269C37.217,73.046 36.487,71.599 36.487,71.599C36.068,70.637 37.205,69.192 37.205,69.192C39.524,67.279 38.427,66.384 38.427,66.384C37.418,65.35 35.969,64.434 34.36,63.639C34.414,63.579 34.446,63.539 34.446,63.539C35.902,63.124 35.112,62.152 35.112,62.152C35.112,62.152 36.59,62.249 36.878,61.343C37.166,60.438 35.704,57.807 35.704,57.807C36.399,55.665 35.097,54.715 35.251,54.34C35.404,53.966 35.068,53.136 35.068,53.136C35.068,53.136 37.506,50.663 37.544,49.986C37.583,49.308 36.591,46.976 36.364,46.727C36.136,46.478 35.895,46.784 35.895,46.784C35.895,46.784 32.965,39.821 29.439,36.491C26.955,34.147 20.773,37 17.331,38.894C17.262,38.615 17.187,38.338 17.087,38.068C16.9,37.563 16.646,37.03 16.329,36.713C15.589,35.973 13.666,36.712 13.664,36.713L13.738,33.825C13.96,33.677 14.7,33.973 15.366,33.825C16.033,33.677 14.034,32.641 14.626,31.308C15.218,29.975 16.773,28.642 17.366,28.272C17.958,27.902 19.439,22.423 18.92,19.832C18.402,17.24 17.292,14.797 17.292,14.797C17.292,14.797 17.184,14.589 17.014,14.27C18.89,14.359 19.43,15.241 19.43,15.241C19.43,15.241 20.244,17.24 20.022,20.646C19.8,24.052 21.186,24.57 21.186,24.57C21.186,24.57 20.17,26.051 20.762,28.864C21.355,31.678 24.464,30.938 24.464,30.938C24.445,30.94 25.516,31.044 26.508,31.52C27.138,31.822 28.981,32.641 28.981,32.641C28.759,32.492 26.888,29.233 27.746,28.089C28.618,26.929 29.276,25.177 29.573,23.978C29.925,22.558 29.986,21.036 29.573,19.535C29.122,17.894 27.944,15.537 26.908,14.871C25.871,14.205 25.797,11.095 25.723,9.836C25.649,8.577 24.168,3.617 21.207,2.654C18.245,1.692 15.95,3.173 14.321,4.431C13.146,5.339 12.704,7.744 12.549,9.016C11.316,8.447 9.913,7.871 9.443,7.615C8.629,7.171 6.333,6.134 3.594,6.578C0.855,7.023 -0.774,7.837 -0.774,7.837C-0.774,7.837 -2.255,7.615 -3.884,8.652C-5.513,9.688 -7.438,11.835 -7.438,11.835C-7.438,11.835 -9.585,13.464 -10.844,14.353C-12.102,15.241 -14.842,18.795 -14.546,21.09C-14.25,23.386 -13.139,24.792 -11.806,25.459C-10.474,26.125 -9.733,28.272 -9.437,28.568C-9.141,28.864 -9.881,29.383 -9.881,29.383C-9.881,29.383 -8.919,29.679 -8.549,29.679C-8.178,29.679 -7.512,30.271 -7.586,31.012C-7.66,31.752 -7.734,35.972 -6.327,36.639C-4.92,37.305 -2.107,38.119 -1.885,38.638C-1.663,39.156 -0.922,40.415 0.41,40.341C1.174,40.298 2.253,39.818 3.036,39.416L3.049,39.787L1.998,40.092C1.472,40.244 0.969,40.485 0.556,40.844C0.364,41.01 0.234,41.17 0.129,41.334C0.147,41.305 0.162,41.275 0.183,41.246C0.162,41.275 0.147,41.305 0.129,41.335C0.062,41.439 0.009,41.547 -0.029,41.658L-0.03,41.658L-0.029,41.658C-0.249,42.292 -0.067,43.084 0.04,44.6C0.04,44.607 0.041,44.615 0.041,44.622C0.055,44.814 0.097,44.995 0.155,45.168C0.155,45.185 0.151,45.202 0.152,45.219C0.171,45.867 0.19,46.565 0.209,47.26C-2.907,48.697 -2.659,54.21 -3.336,55.496C-4.162,57.067 -5.559,56.714 -6.439,56.615C-7.319,56.517 -8.768,56.049 -8.768,56.049C-8.768,56.049 -8.443,55.631 -8.495,55.414C-8.546,55.198 -10.692,54.338 -11.551,54.086C-12.411,53.834 -12.987,54.773 -12.987,54.773C-12.987,54.773 -13.391,54.755 -13.993,54.384C-14.595,54.014 -14.839,51.784 -15.073,51.039C-15.307,50.294 -15.868,49.857 -16.846,49.347C-17.823,48.837 -17.816,49.35 -18.701,48.99C-19.084,48.834 -19.787,48.776 -20.457,48.815C-20.426,47.374 -20.364,45.99 -20.279,44.68C-18.41,16.002 -13.141,-10.453 -7.911,-30.877C-7.167,-30.781 -6.412,-30.717 -5.646,-30.692C-2.321,-30.583 0.862,-31.181 3.765,-32.342C17.54,-24.305 32.833,-26.388 48.139,-28.535C48.318,-28.565 48.5,-28.589 48.681,-28.617C68.617,-31.417 88.531,-34.119 105.097,-14.464C113.693,-26.802 122.286,-39.141 130.879,-51.485C107.845,-72.795 80.308,-64.052 52.753,-55.175C52.501,-55.092 52.251,-55.012 51.997,-54.933C40.214,-51.137 28.436,-47.373 17.012,-45.967C17.847,-48.243 18.344,-50.686 18.428,-53.242C18.848,-66.12 8.752,-76.895 -4.122,-77.317C-16.996,-77.737 -27.772,-67.64 -28.193,-54.764C-28.575,-43.089 -20.309,-33.139 -9.166,-31.073C-14.403,-10.599 -19.671,15.889 -21.542,44.597C-21.633,46.006 -21.699,47.497 -21.728,49.053C-21.983,49.158 -22.14,49.296 -22.128,49.466C-22.111,49.721 -21.938,49.979 -21.742,50.204C-21.744,50.479 -21.744,50.755 -21.743,51.033C-22.025,51.1 -22.296,51.165 -22.296,51.165C-23.176,51.547 -22.816,53.063 -22.816,53.063C-23.398,54.46 -22.145,54.446 -22.145,54.446C-22.145,54.446 -23.141,55.543 -22.611,56.331C-22.441,56.584 -22.018,56.806 -21.524,56.991C-20.665,69.015 -17.035,82.965 -6.536,93.37C-6.59,93.69 -6.708,94.084 -7.039,94.718C-7.699,95.978 -9.193,100.173 -9.429,100.758C-9.665,101.343 -10.798,101.467 -11.075,101.56C-11.352,101.653 -11.442,102.51 -11.587,103.256C-11.733,104.001 -12.432,104.431 -12.432,104.431C-12.971,104.982 -14.314,104.924 -15.294,104.93C-16.275,104.935 -16.437,104.588 -16.437,104.588C-16.437,104.588 -18.047,103.057 -18.795,102.458C-19.543,101.86 -20.789,101.684 -20.789,101.684C-21.438,101.864 -22.241,102.221 -22.668,102.961C-23.627,104.623 -22.163,107.164 -21.141,108.35C-19.908,109.782 -15.896,113 -15.896,113C-14.275,113.862 -12.971,115.656 -12.971,115.656C-10.822,117.703 -9.637,117.349 -9.637,117.349C-6.046,115.97 -6.442,112.288 -6.442,112.288C-5.78,109.983 -3.739,109.512 -3.739,109.512C-2.985,107.944 -3.813,107.809 -3.813,107.809C-4.528,107.768 -3.2,106.271 -3.2,106.271C-1.854,104.77 -0.606,102.713 -0.606,102.713C-0.11,101.957 0.528,100.854 1.07,99.435C5.031,101.961 9.648,104.088 15.026,105.679L15.384,104.465C10.01,102.876 5.416,100.733 1.49,98.184C1.575,97.892 1.675,97.525 1.799,97.037C2.036,96.1 2.409,94.476 2.722,92.832L2.85,92.689C4.041,91.403 5.703,89.651 6.413,89.106C7.37,88.372 8.66,87.355 9.969,86.312C11.417,86.372 12.762,86.314 14.118,86.259C14.659,86.238 15.519,86.072 16.551,85.821L20.53,91.948C22.594,93.976 22.841,94.704 22.841,94.704C24.115,97.272 25.566,98.103 25.566,98.103C26.141,98.347 26.675,98.542 27.174,98.699C27.412,99.043 27.673,99.404 27.977,99.792C27.977,99.792 28.544,100.272 29.123,101.037C29.702,101.801 32.144,105.307 33.281,106.069C33.281,106.069 32.756,107.01 33.596,108.163C33.596,108.163 34.704,109.311 34.577,109.771C34.577,109.771 34.064,111.746 33.503,112.548C32.943,113.349 32.242,115.252 31.467,115.694C31.467,115.694 28.583,117.036 27.734,118.174C27.734,118.174 27.019,119.02 27.363,119.986C-85.688,115.695 -166.25,145.877 -166.25,145.877" style="fill:rgb(255,0,0);fill-rule:nonzero;"/>
            </g>
        </g>
    </g>
</svg>
