<?xml version="1.0" encoding="UTF-8" standalone="no"?>
<!DOCTYPE svg PUBLIC "-//W3C//DTD SVG 1.1//EN" "http://www.w3.org/Graphics/SVG/1.1/DTD/svg11.dtd">
<svg width="100%" height="100%" viewBox="0 0 2001 1104" version="1.1" xmlns="http://www.w3.org/2000/svg" xmlns:xlink="http://www.w3.org/1999/xlink" xml:space="preserve" xmlns:serif="http://www.serif.com/" style="fill-rule:evenodd;clip-rule:evenodd;stroke-linejoin:round;stroke-miterlimit:2;">
    <g transform="matrix(1,0,0,1,-80,-527.1092)">
        <g transform="matrix(2,0,0,2,0,0)">
            <g transform="matrix(1,0,0,1,192.077,658.8957)">
                <path d="M0,108.849C2.089,108.849 4.285,108.534 6.58,107.91C8.881,107.28 10.97,106.31 12.848,104.985C14.731,103.661 16.261,101.919 17.444,99.759C18.627,97.605 19.221,94.989 19.221,91.923C19.221,89.004 18.662,86.529 17.55,84.51C16.435,82.492 14.937,80.891 13.06,79.702C11.176,78.519 9.087,77.651 6.792,77.092C4.49,76.539 2.228,76.256 0,76.256L-53.158,76.256C-61.794,76.256 -69.804,74.553 -77.184,71.139C-84.568,67.725 -90.942,63.097 -96.303,57.247C-101.664,51.397 -105.878,44.673 -108.942,37.08C-112.008,29.495 -113.538,21.517 -113.538,13.16C-113.538,5.085 -111.969,-2.577 -108.839,-9.822C-105.702,-17.061 -101.388,-23.406 -95.885,-28.832C-90.382,-34.27 -83.973,-38.552 -76.664,-41.682C-69.348,-44.819 -61.515,-46.382 -53.158,-46.382L27.413,-46.382C40.35,-46.382 50.837,-35.894 50.837,-22.957L50.837,-0.006L-51.734,-0.006C-56.053,-0.006 -60.34,1.621 -63.248,4.814C-65.853,7.675 -67.156,11.052 -67.156,14.934C-67.156,19.704 -65.626,23.388 -62.559,25.985C-59.496,28.575 -56.153,29.874 -52.531,29.874L4.387,29.874C13.301,29.874 21.484,31.616 28.938,35.088C36.386,38.565 42.83,43.188 48.262,48.96C53.695,54.733 57.941,61.445 61.007,69.088C64.07,76.738 65.604,84.729 65.604,93.073C65.604,101.418 64.106,109.344 61.113,116.853C58.114,124.361 53.936,130.931 48.577,136.563C43.213,142.194 36.804,146.681 29.356,150.018C21.902,153.354 13.789,155.096 5.014,155.231L-91.5,155.231C-104.437,155.231 -114.924,144.744 -114.924,131.807L-114.924,108.849L0,108.849Z" style="fill:rgb(255,0,0);fill-rule:nonzero;"/>
            </g>
        </g>
        <g transform="matrix(2,0,0,2,0,0)">
            <g transform="matrix(1,0,0,1,424.0538,729.2718)">
                <path d="M0,-36.288C0.169,-36.288 0.295,-36.462 0.247,-36.627C-1.425,-42.471 -3.935,-47.835 -7.281,-52.725C-10.698,-57.702 -14.735,-62.004 -19.399,-65.635C-24.069,-69.26 -29.325,-72.071 -35.175,-74.067C-41.025,-76.057 -47.225,-77.048 -53.769,-77.048C-60.317,-77.048 -66.482,-75.984 -72.261,-73.85C-78.04,-71.716 -83.228,-68.833 -87.825,-65.208C-92.421,-61.577 -96.359,-57.276 -99.628,-52.291C-102.838,-47.412 -105.212,-42.185 -106.746,-36.623C-106.791,-36.458 -106.666,-36.288 -106.498,-36.288L0,-36.288ZM-105.013,3.408C-105.187,3.408 -105.313,3.591 -105.256,3.76C-103.453,9.035 -100.915,13.896 -97.644,18.348C-94.301,22.905 -90.435,26.813 -86.05,30.083C-81.66,33.36 -76.787,35.921 -71.425,37.766C-66.064,39.618 -60.455,40.544 -54.605,40.544C-48.337,40.544 -43.185,40.012 -39.144,38.941C-35.107,37.878 -31.276,36.203 -27.653,33.931C-21.246,30.096 -13.173,30.779 -7.47,35.638L17.52,56.93C17.627,57.021 17.642,57.179 17.552,57.288C16.204,58.902 6.424,70.211 -8.85,77.357C-14.488,79.995 -21.109,82.269 -28.907,83.76C-36.708,85.257 -45.274,86.006 -54.605,86.006C-68.674,86.006 -81.943,83.267 -94.408,77.784C-106.873,72.307 -117.772,64.874 -127.103,55.483C-136.437,46.093 -143.785,35.1 -149.147,22.511C-154.508,9.916 -157.189,-3.559 -157.189,-17.934C-157.189,-32.446 -154.508,-46.033 -149.147,-58.701C-143.785,-71.361 -136.437,-82.387 -127.103,-91.778C-117.772,-101.168 -106.873,-108.602 -94.408,-114.078C-81.943,-119.555 -68.674,-122.294 -54.605,-122.294C-40.678,-122.294 -27.55,-119.595 -15.22,-114.19C-2.897,-108.779 7.9,-101.45 17.157,-92.204C26.427,-82.952 33.807,-72.038 39.31,-59.443C44.813,-46.854 47.693,-33.438 47.976,-19.214L47.976,-14.355C47.976,-4.545 40.19,3.408 30.586,3.408L-105.013,3.408Z" style="fill:rgb(255,0,0);fill-rule:nonzero;"/>
            </g>
        </g>
        <g transform="matrix(2,0,0,2,0,0)">
            <g transform="matrix(1,0,0,1,808.5205,729.2718)">
                <path d="M0,-36.288C0.169,-36.288 0.295,-36.462 0.247,-36.627C-1.425,-42.471 -3.935,-47.835 -7.281,-52.725C-10.698,-57.702 -14.735,-62.004 -19.399,-65.635C-24.069,-69.26 -29.325,-72.071 -35.175,-74.067C-41.025,-76.057 -47.225,-77.048 -53.769,-77.048C-60.317,-77.048 -66.482,-75.984 -72.261,-73.85C-78.04,-71.716 -83.228,-68.833 -87.825,-65.208C-92.421,-61.577 -96.359,-57.276 -99.628,-52.291C-102.838,-47.412 -105.212,-42.185 -106.746,-36.623C-106.791,-36.458 -106.666,-36.288 -106.498,-36.288L0,-36.288ZM-105.013,3.408C-105.187,3.408 -105.313,3.591 -105.256,3.76C-103.453,9.035 -100.915,13.896 -97.644,18.348C-94.301,22.905 -90.435,26.813 -86.05,30.083C-81.66,33.36 -76.787,35.921 -71.425,37.766C-66.064,39.618 -60.455,40.544 -54.605,40.544C-48.337,40.544 -43.185,40.012 -39.144,38.941C-35.107,37.878 -31.276,36.203 -27.653,33.931C-21.246,30.096 -13.173,30.779 -7.47,35.638L17.52,56.93C17.627,57.021 17.642,57.179 17.552,57.288C16.204,58.902 6.424,70.211 -8.85,77.357C-14.488,79.995 -21.109,82.269 -28.907,83.76C-36.708,85.257 -45.274,86.006 -54.605,86.006C-68.674,86.006 -81.943,83.267 -94.408,77.784C-106.873,72.307 -117.772,64.874 -127.103,55.483C-136.437,46.093 -143.785,35.1 -149.147,22.511C-154.508,9.916 -157.189,-3.559 -157.189,-17.934C-157.189,-32.446 -154.508,-46.033 -149.147,-58.701C-143.785,-71.361 -136.437,-82.387 -127.103,-91.778C-117.772,-101.168 -106.873,-108.602 -94.408,-114.078C-81.943,-119.555 -68.674,-122.294 -54.605,-122.294C-40.678,-122.294 -27.55,-119.595 -15.22,-114.19C-2.897,-108.779 7.9,-101.45 17.157,-92.204C26.427,-82.952 33.807,-72.038 39.31,-59.443C44.813,-46.854 47.693,-33.438 47.976,-19.214L47.976,-14.355C47.976,-4.545 40.19,3.408 30.586,3.408L-105.013,3.408Z" style="fill:rgb(255,0,0);fill-rule:nonzero;"/>
            </g>
        </g>
        <g transform="matrix(2,0,0,2,0,0)">
            <g transform="matrix(1,0,0,1,456.7872,815.2774)">
                <path d="M0,-203.914L24.97,-203.914C38.207,-203.914 50.266,-196.307 55.967,-184.36L102.57,-77.937C104.147,-74.336 109.269,-74.377 110.787,-78.003L155.122,-183.836C160.708,-196.067 172.918,-203.914 186.364,-203.914L211.768,-203.914L129.066,0L84.807,0L0,-203.914Z" style="fill:rgb(255,0,0);fill-rule:nonzero;"/>
            </g>
        </g>
        <g transform="matrix(2,0,0,2,0,0)">
            <g transform="matrix(1,0,0,1,954.3793,815.389)">
                <path d="M0,-208.807C46.744,-208.807 84.637,-170.914 84.637,-124.17L84.637,0L38.136,-0.017L38.136,-125.886C38.136,-147.432 20.695,-164.912 -0.85,-164.961L-0.851,-164.961C-22.465,-165.01 -40.014,-147.501 -40.014,-125.886L-40.014,-0.017L-84.637,0L-84.637,-124.17C-84.637,-170.914 -46.744,-208.807 0,-208.807" style="fill:rgb(255,0,0);fill-rule:nonzero;"/>
            </g>
        </g>
        <g transform="matrix(2,0,0,2,0,0)">
            <g transform="matrix(1,0,0,1,844.8801,492.6923)">
                <path d="M0,25.624L100.617,25.624C90.787,44.326 76.554,60.002 59.425,71.007L163.754,71.007C183.567,40.555 195.12,4.235 195.12,-34.803C195.12,-38.348 194.796,-45.357 194.796,-45.357L-8.248,-45.383L0,25.624Z" style="fill:rgb(255,0,0);fill-rule:nonzero;"/>
            </g>
        </g>
        <g transform="matrix(2,0,0,2,0,0)">
            <g transform="matrix(1,0,0,1,787.2098,263.5546)">
                <path d="M0,300.145C-33.599,278.671 -56.184,239.385 -56.184,194.335C-56.184,126.313 -4.858,71.171 58.456,71.171C99.952,71.171 136.235,94.886 156.334,130.366L241.962,130.366C215.509,54.476 143.365,0 58.456,0C-48.872,0 -135.878,87.007 -135.878,194.335C-135.878,233.373 -124.325,269.693 -104.512,300.145L0,300.145Z" style="fill:rgb(255,0,0);fill-rule:nonzero;"/>
            </g>
        </g>
        <g transform="matrix(2,0,0,2,0,0)">
            <g transform="matrix(1,0,0,1,163.5,341.3583)">
                <path d="M0,221.933L-59.831,221.933L-59.831,52.167L-123.5,52.167L-123.5,0L60.402,0L60.402,52.167L0,52.167L0,221.933Z" style="fill:rgb(255,0,0);fill-rule:nonzero;"/>
            </g>
        </g>
        <g transform="matrix(2,0,0,2,0,0)">
            <g transform="matrix(1,0,0,1,313.2142,341.3583)">
                <path d="M0,221.933L-56.565,221.933L-56.565,0L0,0L0,87.642L82.814,87.642L82.814,0L139.379,0L139.379,221.933L82.814,221.933L82.814,137.885L0,137.885L0,221.933Z" style="fill:rgb(255,0,0);fill-rule:nonzero;"/>
            </g>
        </g>
        <g transform="matrix(2,0,0,2,0,0)">
            <g transform="matrix(1,0,0,1,631.583,341.3583)">
                <path d="M0,221.933L-148.346,221.933L-148.346,0L-6.723,0L-6.723,50.242L-94.108,50.242L-94.108,92.925L-13.866,92.925L-13.866,137.464L-94.108,137.464L-94.108,180.533L0,180.533L0,221.933Z" style="fill:rgb(255,0,0);fill-rule:nonzero;"/>
            </g>
        </g>
    </g>
</svg>
